Coordinates
version=1
nRows=9
nColumns=24
inDegrees=yes

Units are S.I. units (second, meters, Newtons, ...)
Angles are in degrees.

endheader
time	pelvis_tilt	pelvis_list	pelvis_rotation	pelvis_tx	pelvis_ty	pelvis_tz	hip_flexion_r	hip_adduction_r	hip_rotation_r	knee_angle_r	ankle_angle_r	subtalar_angle_r	mtp_angle_r	hip_flexion_l	hip_adduction_l	hip_rotation_l	knee_angle_l	ankle_angle_l	subtalar_angle_l	mtp_angle_l	lumbar_extension	lumbar_bending	lumbar_rotation
      4.99000000	    -15.49334967	      6.02962900	     -7.20698624	     -0.88991696	     -0.00692540	     -0.35889367	     32.56143377	     -5.51821450	     -2.08107481	    -59.18279354	     -4.73565194	    -11.82698547	     23.73385013	     20.90729081	      5.81554360	    -11.20700344	    -15.73551146	      3.52514460	     -2.95732958	      3.94523464	     23.36309607	     -6.77063838	     -8.83950294
      4.99500000	    -15.54098518	      5.68475194	     -6.82110353	     -0.88368821	     -0.00631388	     -0.35928018	     33.10067922	     -5.32577700	     -2.83519320	    -58.43766178	     -4.14906580	    -11.92998404	     23.42493896	     20.15524034	      5.71371798	    -10.71477555	    -15.15191328	      3.67669380	     -2.72504396	      3.87921324	     23.30241232	     -6.64017413	     -9.46568034
      5.00000000	    -15.56678107	      5.32909402	     -6.40113405	     -0.87747913	     -0.00572285	     -0.35977599	     33.58062139	     -5.16310268	     -3.64037287	    -57.60670568	     -3.60573504	    -12.07420860	     23.03213344	     19.39810526	      5.61035965	    -10.26446754	    -14.58695400	      3.76319893	     -2.55612521	      3.76180163	     23.20069765	     -6.49760839	    -10.15226690
      5.00500000	    -15.60325414	      4.99880931	     -5.99944866	     -0.87128434	     -0.00526030	     -0.36020105	     34.07419620	     -5.02089372	     -4.42241623	    -56.73645613	     -3.09605403	    -12.17907961	     22.63693502	     18.64849388	      5.50896369	     -9.79561945	    -14.00798272	      3.88633819	     -2.36153866	      3.65271300	     23.12111896	     -6.37602966	    -10.79383374
      5.01000000	    -15.63339042	      4.68187595	     -5.60074946	     -0.86511641	     -0.00487946	     -0.36062316	     34.54932766	     -4.90219974	     -5.20746953	    -55.81007829	     -2.62562447	    -12.27259496	     22.21107851	     17.89872115	      5.40985449	     -9.33344680	    -13.42993478	      4.00899215	     -2.17792433	      3.53353873	     23.03428311	     -6.26705121	    -11.42606181
      5.01500000	    -15.66883347	      4.38075365	     -5.21420055	     -0.85895975	     -0.00460331	     -0.36102230	     35.02097525	     -4.79968093	     -5.97921520	    -54.83427999	     -2.17748957	    -12.32810510	     21.79029782	     17.15945244	      5.30914121	     -8.89149780	    -12.85206300	      4.13943765	     -1.98896827	      3.42438116	     22.95427817	     -6.16318472	    -12.03126068
      5.02000000	    -15.64594944	      4.11389299	     -4.83241505	     -0.85281519	     -0.00435156	     -0.36140748	     35.42835705	     -4.74547671	     -6.75184762	    -53.82729581	     -1.80134245	    -12.37027402	     21.17362224	     16.34856833	      5.24166652	     -8.41998300	    -12.24597607	      4.24076771	     -1.83274741	      3.26451659	     22.81610271	     -6.09933093	    -12.63823404
      5.02500000	    -15.71913640	      3.83183530	     -4.48164575	     -0.84668483	     -0.00430212	     -0.36174160	     35.91062931	     -4.64396024	     -7.47706086	    -52.73837247	     -1.36139114	    -12.29706058	     20.79818942	     15.67951863	      5.11723564	     -8.08119339	    -11.70791848	      4.41204984	     -1.62991091	      3.20825331	     22.78133458	     -5.99287189	    -13.17742766
      5.03000000	    -15.78144965	      3.57655751	     -4.16989736	     -0.84058420	     -0.00435041	     -0.36202254	     36.39203132	     -4.55250502	     -8.15791368	    -51.62511776	     -0.99911868	    -12.20361330	     20.49507803	     14.98042192	      5.00035665	     -7.70644718	    -11.12619323	      4.59101660	     -1.40416179	      3.18000928	     22.73686755	     -5.89623213	    -13.65790367
